<?xml version="1.0" encoding="UTF-8"?>
<svg width="32px" height="32px" viewBox="0 0 32 32" version="1.1" xmlns="http://www.w3.org/2000/svg" xmlns:xlink="http://www.w3.org/1999/xlink">
    <title>Fill 35</title>
    <g id="Page-1" stroke="none" stroke-width="1" fill="none" fill-rule="evenodd">
        <g id="Desktop-HD" transform="translate(-1361.000000, -15.000000)">
            <g id="Fill-35" transform="translate(1361.000000, 15.000000)">
                <circle id="Oval" fill="#FFFFFF" cx="16" cy="16" r="16"></circle>
                <path d="M15.999,0 C7.164,0 0,7.163 0,16.001 C0,23.069 4.584,29.066 10.943,31.182 C11.743,31.329 12.035,30.835 12.035,30.411 C12.035,30.031 12.021,29.025 12.013,27.69 C7.562,28.657 6.623,25.545 6.623,25.545 C5.896,23.697 4.847,23.205 4.847,23.205 C3.394,22.212 4.957,22.232 4.957,22.232 C6.562,22.345 7.407,23.881 7.407,23.881 C8.835,26.326 11.152,25.62 12.064,25.21 C12.209,24.176 12.623,23.471 13.08,23.071 C9.527,22.667 5.792,21.295 5.792,15.164 C5.792,13.417 6.415,11.989 7.439,10.87 C7.274,10.465 6.725,8.839 7.595,6.636 C7.595,6.636 8.939,6.206 11.995,8.276 C13.272,7.921 14.64,7.744 16.001,7.737 C17.36,7.744 18.729,7.921 20.007,8.276 C23.061,6.206 24.402,6.636 24.402,6.636 C25.275,8.839 24.726,10.465 24.561,10.87 C25.587,11.989 26.206,13.417 26.206,15.164 C26.206,21.31 22.465,22.663 18.901,23.059 C19.475,23.553 19.987,24.529 19.987,26.022 C19.987,28.161 19.967,29.886 19.967,30.411 C19.967,30.839 20.255,31.337 21.067,31.18 C27.42,29.06 32,23.067 32,16.001 C32,7.163 24.836,0 15.999,0" id="Fill-34" fill="#000000"></path>
            </g>
        </g>
    </g>
</svg>