<?xml version="1.0" encoding="UTF-8"?>
<svg width="8px" height="8px" viewBox="0 0 8 8" version="1.1" xmlns="http://www.w3.org/2000/svg" xmlns:xlink="http://www.w3.org/1999/xlink">
    <title>Combined Shape</title>
    <g id="Page-1" stroke="none" stroke-width="1" fill="none" fill-rule="evenodd">
        <path d="M2.9731275,0 C4.61520869,0 5.946255,1.33104631 5.946255,2.9731275 C5.946255,3.70954831 5.67638651,4.38650658 5.22813036,4.9079474 L5.22813036,4.9079474 L5.35620354,5.03144654 L5.71755289,5.03144654 L8,7.3184677 L7.3184677,8 L5.03144654,5.71755289 L5.03144654,5.35620354 L4.9079474,5.22813036 C4.38650658,5.67638651 3.70954831,5.946255 2.9731275,5.946255 C1.33104631,5.946255 0,4.61520869 0,2.9731275 C0,1.33104631 1.33104631,0 2.9731275,0 Z M3,1 C1.8954305,1 1,1.8954305 1,3 C1,4.1045695 1.8954305,5 3,5 C4.1045695,5 5,4.1045695 5,3 C5,1.8954305 4.1045695,1 3,1 Z" id="Combined-Shape" fill="#848484"></path>
    </g>
</svg>